# xmcd CD database file
#
# Track frame offsets:
#	150
#	9767
#	22103
#	33203
#	44371
#	56511
#	68171
#	79278
#	89996
#	101456
#	112758
#	124663
#	134806
#	145591
#	154766
#	165954
#	177010
#	189825
#	198345
#	208348
#	218210
#
# Disc length: 3024 seconds
#
# Revision: 7
# Processed by: cddbd v1.5.2PL0 Copyright (c) Steve Scherf et al.
# Submitted via: CDex 1.70beta2
#
DISCID=1d0bce15
DTITLE=Buck Owens - The Buck Owens Collection  -  Disc 1
DYEAR=1992
DGENRE=Country
TTITLE0=Second Fiddle
TTITLE1=Under Your Spell Again
TTITLE2=Above And Beyond
TTITLE3=Excuse Me (I Think I've Got A Heartache)
TTITLE4=Foolin' Around
TTITLE5=Loose Talk (with Rose Maddox)
TTITLE6=Mental Cruelty (with Rose Maddox)
TTITLE7=Under The Influence Of Love
TTITLE8=Nobody's Fool But Yours
TTITLE9=Save The Last Dance For Me
TTITLE10=Kickin' Our Hearts Around
TTITLE11=You're For Me
TTITLE12=Act Naturally
TTITLE13=Love's Gonna Live Here
TTITLE14=My Heart Skips A Beat
TTITLE15=Together Again
TTITLE16=Close Up The Honky Tonks
TTITLE17=Hello Trouble
TTITLE18=A-11
TTITLE19=I Don't Care (Just As Long As You Love Me)
TTITLE20=Buck's Polka
EXTD=YEAR: 1992
EXTT0=
EXTT1=
EXTT2=
EXTT3=
EXTT4=
EXTT5=with Rose Maddox
EXTT6=with Rose Maddox
EXTT7=
EXTT8=
EXTT9=
EXTT10=
EXTT11=
EXTT12=
EXTT13=
EXTT14=
EXTT15=
EXTT16=
EXTT17=
EXTT18=
EXTT19=
EXTT20=
PLAYORDER=
